<?xml version="1.0" encoding="UTF-8" standalone="no"?>
<svg
   xmlns:dc="http://purl.org/dc/elements/1.1/"
   xmlns:cc="http://creativecommons.org/ns#"
   xmlns:rdf="http://www.w3.org/1999/02/22-rdf-syntax-ns#"
   xmlns:svg="http://www.w3.org/2000/svg"
   xmlns="http://www.w3.org/2000/svg"
   width="450"
   height="150"
   viewBox="0 0 450 150"
   version="1.1"
   preserveAspectRatio="xMidYMid"
   id="svg10">
  <metadata
     id="metadata16">
    <rdf:RDF>
      <cc:Work
         rdf:about="">
        <dc:format>image/svg+xml</dc:format>
        <dc:type
           rdf:resource="http://purl.org/dc/dcmitype/StillImage" />
        <dc:title></dc:title>
      </cc:Work>
    </rdf:RDF>
  </metadata>
  <defs
     id="defs14" />
  <path
     style="fill:#326de6;fill-opacity:1;stroke-width:0.5975793"
     id="path2"
     d="m 51.254416,146.58512 c -3.55309,0 -6.908788,-1.57914 -9.178817,-4.44136 L 7.5316586,99.210582 c -2.27003,-2.862213 -3.158303,-6.513997 -2.27003,-10.067091 L 17.598751,35.551036 c 0.789576,-3.55309 3.158302,-6.415302 6.415302,-7.994454 L 73.95472,3.6719161 c 1.579151,-0.789577 3.355696,-1.184364 5.132239,-1.184364 1.77655,0 3.553094,0.394787 5.132245,1.184364 L 134.15987,27.457885 c 3.25701,1.579151 5.62573,4.441365 6.41531,7.994455 l 12.33712,53.592449 c 0.78957,3.553096 0,7.204879 -2.27002,10.067093 l -34.54395,42.933178 c -2.27003,2.76353 -5.62574,4.44138 -9.17882,4.44138 z" />
  <path
     style="fill:#325be6;fill-opacity:1;stroke:none;stroke-width:0.5975793"
     d="m 79.072665,23.114613 c 2.218011,5.471332 10.927671,21.609881 12.850286,25.602538 1.694754,3.519991 5.17566,11.387002 0.887035,19.372305 -3.308361,6.160655 -8.833506,15.423599 -10.033966,28.772513 h 0.831011 c 0.0648,-0.707663 0.146563,-1.407799 0.243932,-2.093857 2.790714,-19.681523 17.624707,-29.523366 31.725397,-27.907662 15.77055,1.807206 24.23567,26.732974 -0.14707,32.754812 3.96572,-7.343939 -2.20285,-20.564249 -16.450929,-13.073209 -4.63373,2.436444 -7.861694,6.329329 -9.197122,10.319916 h 2.610908 c 2.251754,0 4.078014,1.322927 4.078014,2.955223 0,1.631688 -1.82625,2.954038 -4.078014,2.954038 h -3.129123 c 0.237664,1.28689 0.727731,2.50498 1.490446,3.59948 3.378811,4.84713 14.69499,2.20312 8.378951,-8.371939 10.674509,-1.404973 13.510739,8.665969 10.426129,14.100299 -3.38977,6.929 -18.196266,9.00574 -23.799301,-0.8812 -1.343418,-2.37131 -2.018707,-5.3413 -2.236256,-8.44664 h -0.9804 c 0.02396,2.24791 0.169951,4.59392 0.470361,7.04841 4.251048,3.4895 2.538073,8.3745 6.884999,11.0412 -2.978365,0.0784 -5.407981,-0.50532 -6.191718,-1.60249 6e-6,2.5939 -2.776777,5.84298 -4.500513,9.72584 -1.855448,-3.86124 -4.702441,-6.54415 -4.702441,-9.72584 -0.784024,1.09717 -3.213649,1.68092 -6.19171,1.60249 4.740877,-3.11036 3.281906,-8.31275 7.025059,-10.72374 0.313728,-2.56401 0.460553,-5.01822 0.47036,-7.36587 h -1.143808 c -0.217835,3.10534 -0.892534,6.07533 -2.236257,8.44664 -5.098038,8.99612 -17.811543,8.08574 -22.615804,2.62959 l -0.0852,0.17507 32.507378,32.50739 24.686331,-0.0433 c 3.55308,0 6.90841,-1.67864 9.17844,-4.44216 l 34.54404,-42.932328 c 0.68491,-0.863569 1.23304,-1.799579 1.64568,-2.782491 z M 66.662389,76.717006 c 3.824191,4.544872 6.615818,10.588971 7.673995,18.051106 0.09736,0.686058 0.179112,1.385893 0.243931,2.093857 h 0.950056 C 74.990876,91.301278 73.700147,86.436586 72.145646,82.20027 Z m -15.622263,7.603965 c -8.292962,0.23247 -11.380298,9.556841 -8.282076,15.294291 -5.537221,-1.367663 -9.375029,-3.712974 -11.8232,-6.53835 l -0.203083,0.138887 17.164065,17.164061 c -1.717251,-5.58201 1.532131,-13.648226 11.159094,-12.381089 -6.31574,10.575059 5.00014,13.219059 8.378949,8.371939 0.763014,-1.0945 1.252785,-2.31259 1.490447,-3.59948 h -2.906195 c -2.251751,0 -4.076848,-1.32207 -4.076848,-2.954038 0,-1.631997 1.825097,-2.955223 4.076848,-2.955223 h 2.386816 c -1.33513,-3.990587 -4.562226,-7.883472 -9.195955,-10.319916 -3.116766,-1.638663 -5.846833,-2.28617 -8.168862,-2.221082 z"
     id="path899" />
  <path
     style="fill:#ffffff;stroke-width:0.5975793"
     id="path4"
     d="m 78.988264,4.9549751 c 1.381759,0 2.763517,0.296092 4.04658,0.888275 L 132.9755,29.629219 c 2.56612,1.28306 4.54007,3.651787 5.13225,6.415303 l 12.33711,53.59245 c 0.69089,2.862223 0,5.823123 -1.87523,8.093153 L 114.02569,140.6633 c -1.77654,2.27003 -4.54006,3.55311 -7.40228,3.55311 H 51.254416 c -2.862211,0 -5.625725,-1.28308 -7.402273,-3.55311 L 9.3082046,97.730125 c -1.776546,-2.27003 -2.467424,-5.23093 -1.875243,-8.093153 L 19.770084,36.044522 c 0.690879,-2.862213 2.56612,-5.23094 5.132243,-6.415303 L 74.842992,5.7445521 c 1.283064,-0.493485 2.763519,-0.789577 4.145272,-0.789577 z m 0,-4.63875697 v 0 c -2.072633,0 -4.145272,0.493485 -6.119213,1.38175797 L 22.928387,25.582644 c -3.947879,1.875241 -6.711395,5.329635 -7.698364,9.573605 L 2.8929014,88.748711 c -0.9869696,4.243966 0,8.586634 2.7635152,12.041009 l 34.5439414,42.93319 c 2.664817,3.35571 6.711393,5.23094 10.955362,5.23094 h 55.36899 c 4.24398,0 8.29056,-1.87523 10.95537,-5.23094 l 34.54394,-42.93319 c 2.76351,-3.355687 3.75049,-7.797043 2.76351,-12.041009 L 142.45041,35.156249 c -0.98696,-4.24397 -3.75049,-7.698365 -7.69836,-9.573605 L 85.008779,1.6979761 C 83.133539,0.80970313 81.060902,0.31621813 78.988264,0.31621813 Z" />
  <path
     d="m 115.57685,66.860761 c -14.10068,-1.615704 -28.935071,8.225351 -31.725785,27.906875 -0.09737,0.686059 -0.179066,1.386619 -0.243873,2.094295 h -0.83168 C 83.975971,83.513014 89.502062,74.249991 92.810422,68.089344 97.099051,60.104028 93.61814,52.237395 91.923393,48.717404 90.000766,44.724746 81.290903,28.5863 79.072892,23.114968 76.854881,28.5863 68.21015,44.724746 66.287516,48.717404 c -1.695321,3.519991 -5.17595,11.386624 -0.887322,19.37194 3.286173,6.118619 8.840672,15.48405 10.129919,28.772587 H 74.580637 C 74.515815,96.153956 74.434129,95.453695 74.336759,94.767636 71.54576,75.085813 56.71136,65.245057 42.610977,66.860761 26.840424,68.667669 18.376226,93.592624 42.757778,99.614762 38.792056,92.27081 44.960695,79.051541 59.208772,86.542579 c 4.633729,2.436442 7.861298,6.328765 9.196427,10.319352 h -2.387012 c -2.25175,0 -4.077302,1.32269 -4.077302,2.954681 0,1.631988 1.825552,2.954688 4.077302,2.954688 h 2.905555 c -0.237663,1.28688 -0.726906,2.5051 -1.489921,3.59961 -3.378808,4.84713 -14.694695,2.2032 -8.378956,-8.371852 -10.674216,-1.404986 -13.51081,8.665742 -10.426488,14.100372 3.389763,6.92899 18.19604,9.00582 23.799076,-0.88139 1.34371,-2.37134 2.018226,-5.34141 2.236062,-8.44674 h 1.143632 c -0.0097,2.34764 -0.156861,4.80184 -0.470589,7.36584 -3.743153,2.41099 -2.284009,7.61387 -7.024885,10.72424 2.97806,0.0784 5.407704,-0.50551 6.191728,-1.60268 0,3.18169 2.846358,5.86378 4.701807,9.72502 1.723735,-3.88284 4.50113,-7.13113 4.50113,-9.72502 0.78373,1.09717 3.213357,1.6811 6.191721,1.60268 -4.346923,-2.6667 -2.633551,-7.55201 -6.884597,-11.04153 -0.300409,-2.45449 -0.446327,-4.80065 -0.470301,-7.04855 h 0.980256 c 0.217549,3.10533 0.892653,6.07541 2.236072,8.44674 5.603033,9.88693 20.409311,7.81038 23.799081,0.88139 3.08461,-5.43433 0.24802,-15.505358 -10.426499,-14.100372 6.316039,10.575052 -5.00014,13.218982 -8.378953,8.371852 -0.762715,-1.0945 -1.25196,-2.31273 -1.489622,-3.59961 h 3.129009 c 2.251766,0 4.077306,-1.323 4.077306,-2.954678 0,-1.632301 -1.82555,-2.954691 -4.077306,-2.954691 h -2.610764 c 1.335428,-3.990587 4.5627,-7.88291 9.19643,-10.319352 14.248079,-7.491038 20.416709,5.728231 16.450989,13.072183 24.38275,-6.021838 15.91825,-30.946795 0.14769,-32.754001 z"
     id="path4-3"
     style="fill:#ffffff;stroke-width:0.29597163" />
  <g
     id="text823"
     style="font-style:normal;font-weight:normal;font-size:113.75556946px;line-height:1.25;font-family:sans-serif;letter-spacing:0px;word-spacing:0px;fill:#000000;fill-opacity:1;stroke:none;stroke-width:2.84388924"
     aria-label="qbec">
    <path
       id="path825"
       style="font-style:normal;font-variant:normal;font-weight:normal;font-stretch:normal;font-family:'DEC Terminal';-inkscape-font-specification:'DEC Terminal';stroke-width:2.84388924"
       d="m 182.34509,77.87377 q 0,11.275576 4.61021,17.718763 4.66576,6.387637 12.77529,6.387637 8.10953,0 12.77528,-6.387637 4.66576,-6.443187 4.66576,-17.718763 0,-11.275577 -4.66576,-17.663219 -4.66575,-6.443186 -12.77528,-6.443186 -8.10953,0 -12.77529,6.443186 -4.61021,6.387642 -4.61021,17.663219 z m 34.82654,21.717982 q -3.2216,5.554468 -8.16508,8.276158 -4.88793,2.66615 -11.77547,2.66615 -11.27558,0 -18.3853,-8.99824 -7.05418,-8.998246 -7.05418,-23.66205 0,-14.663804 7.05418,-23.662047 7.10972,-8.998244 18.3853,-8.998244 6.88754,0 11.77547,2.721691 4.94348,2.666146 8.16508,8.220617 v -9.4426 h 10.22022 v 85.872123 h -10.22022 z" />
    <path
       id="path827"
       style="font-style:normal;font-variant:normal;font-weight:normal;font-stretch:normal;font-family:'DEC Terminal';-inkscape-font-specification:'DEC Terminal';stroke-width:2.84388924"
       d="m 293.10124,77.87377 q 0,-11.275577 -4.66575,-17.663219 -4.61021,-6.443186 -12.71974,-6.443186 -8.10953,0 -12.77528,6.443186 -4.61021,6.387642 -4.61021,17.663219 0,11.275576 4.61021,17.718763 4.66575,6.387637 12.77528,6.387637 8.10953,0 12.71974,-6.387637 4.66575,-6.443187 4.66575,-17.718763 z M 258.33026,56.155787 q 3.22159,-5.554471 8.10952,-8.220617 4.94348,-2.721691 11.77548,-2.721691 11.33112,0 18.3853,8.998244 7.10972,8.998243 7.10972,23.662047 0,14.663804 -7.10972,23.66205 -7.05418,8.99824 -18.3853,8.99824 -6.832,0 -11.77548,-2.66615 -4.88793,-2.72169 -8.10952,-8.276158 v 9.331508 H 248.05448 V 22.495692 h 10.27578 z" />
    <path
       id="path829"
       style="font-style:normal;font-variant:normal;font-weight:normal;font-stretch:normal;font-family:'DEC Terminal';-inkscape-font-specification:'DEC Terminal';stroke-width:2.84388924"
       d="m 373.86325,75.263168 v 4.999024 h -46.99082 q 0.66653,10.553496 6.33209,16.107967 5.72111,5.498931 15.88579,5.498931 5.88774,0 11.38667,-1.44417 5.55447,-1.44416 10.99785,-4.332485 v 9.664775 q -5.49893,2.33288 -11.27558,3.55487 -5.77665,1.22198 -11.71993,1.22198 -14.88598,0 -23.6065,-8.66497 -8.66498,-8.66498 -8.66498,-23.439873 0,-15.274796 8.22062,-24.217494 8.27616,-8.998244 22.27343,-8.998244 12.5531,0 19.82946,8.109528 7.3319,8.053983 7.3319,21.940161 z m -10.22022,-2.999414 q -0.11109,-8.387252 -4.7213,-13.386276 -4.55467,-4.999024 -12.10875,-4.999024 -8.55389,0 -13.71955,4.83239 -5.11011,4.83239 -5.88774,13.608455 z" />
    <path
       id="path831"
       style="font-style:normal;font-variant:normal;font-weight:normal;font-stretch:normal;font-family:'DEC Terminal';-inkscape-font-specification:'DEC Terminal';stroke-width:2.84388924"
       d="M 435.4068,49.101609 V 58.6553 q -4.33249,-2.388423 -8.72052,-3.554862 -4.33249,-1.221984 -8.77606,-1.221984 -9.94251,0 -15.44143,6.332097 -5.49893,6.276553 -5.49893,17.663219 0,11.386666 5.49893,17.718763 5.49892,6.276557 15.44143,6.276557 4.44357,0 8.77606,-1.16644 4.38803,-1.221987 8.72052,-3.61041 v 9.4426 q -4.27694,1.99961 -8.88715,2.99942 -4.55467,0.9998 -9.72033,0.9998 -14.05281,0 -22.32897,-8.83161 -8.27616,-8.831608 -8.27616,-23.82868 0,-15.219251 8.3317,-23.939771 8.38725,-8.72052 22.93997,-8.72052 4.7213,0 9.22042,0.999805 4.49912,0.94426 8.72052,2.888325 z" />
  </g>
</svg>
